<svg xmlns="http://www.w3.org/2000/svg" version="1.1" xmlns:xlink="http://www.w3.org/1999/xlink" xmlns:svgjs="http://svgjs.dev/svgjs" width="1000" height="333" viewBox="0 0 1000 333"><g transform="matrix(1,0,0,1,-0.6060606060606233,0.3992218228493698)"><svg viewBox="0 0 396 132" data-background-color="#ffffff" preserveAspectRatio="xMidYMid meet" height="333" width="1000" xmlns="http://www.w3.org/2000/svg" xmlns:xlink="http://www.w3.org/1999/xlink"><g id="tight-bounds" transform="matrix(1,0,0,1,0.2400000000000091,-0.15824729297142426)"><svg viewBox="0 0 395.52 132.31649645192206" height="132.31649645192206" width="395.52"><g><svg viewBox="0 0 395.52 132.31649645192206" height="132.31649645192206" width="395.52"><g><svg viewBox="0 0 395.52 132.31649645192206" height="132.31649645192206" width="395.52"><g id="textblocktransform"><svg viewBox="0 0 395.52 132.31649645192206" height="132.31649645192206" width="395.52" id="textblock"><g><svg viewBox="0 0 395.52 132.31649645192206" height="132.31649645192206" width="395.52"><g transform="matrix(1,0,0,1,0,0)"><svg width="395.52" viewBox="3.246666669845581 -35.79999923706055 107.8029556274414 36.06666564941406" height="132.31649645192206" data-palette-color="#ff908b"><path d="M20.35-0.8L20.35-0.8Q14.6-7.15 11.45-12.7L11.45-12.7 8.75-10.45Q8.65-10.35 8.55-10.3L8.55-10.3Q8.45-6.4 8.25-2.35L8.25-2.35Q8.2-1.3 7.43-0.6 6.65 0.1 5.63 0.05 4.6 0 3.9-0.78 3.2-1.55 3.25-2.55L3.25-2.55Q3.8-14.05 3.8-33.3L3.8-33.3Q3.8-34.35 4.53-35.08 5.25-35.8 6.3-35.8 7.35-35.8 8.08-35.08 8.8-34.35 8.8-33.3L8.8-33.3Q8.8-23.5 8.7-16.9L8.7-16.9Q16-23 18.8-25.7L18.8-25.7Q19.45-26.5 20.5-26.55 21.55-26.6 22.33-25.93 23.1-25.25 23.15-24.2 23.2-23.15 22.5-22.4L22.5-22.4Q20-19.95 15.35-15.95L15.35-15.95Q18.35-10.45 24.05-4.1L24.05-4.1Q24.75-3.35 24.7-2.33 24.65-1.3 23.88-0.6 23.1 0.1 22.08 0.05 21.05 0 20.35-0.8L20.35-0.8ZM29.55-11.5L29.55-11.5Q28.5-11.45 27.8-12.03 27.1-12.6 27.02-13.63 26.95-14.65 27.55-15.35 28.15-16.05 29.15-16.15L29.15-16.15Q30.85-16.25 33.85-16.35 36.85-16.45 37.77-16.5 38.7-16.55 39.47-15.93 40.25-15.3 40.3-14.28 40.35-13.25 39.65-12.58 38.95-11.9 37.95-11.85L37.95-11.85Q36.95-11.8 34.1-11.7 31.25-11.6 29.55-11.5L29.55-11.5ZM65.7 0L65.7 0Q64.9 0 64.25-0.45 63.59-0.9 63.34-2.15L63.34-2.15Q61.2-0.6 58.84-0.15L58.84-0.15Q55.59 0.45 52.9-0.5 50.2-1.45 48.34-3.65L48.34-3.65Q45-7.55 45.05-13.55L45.05-13.55Q45.09-18.95 48.55-22.85L48.55-22.85Q52.7-27.5 59.45-26.3L59.45-26.3Q61.75-25.9 62.95-25.25L62.95-25.25 62.84-33.25Q62.84-34.3 63.57-35.05 64.3-35.8 65.32-35.8 66.34-35.8 67.09-35.08 67.84-34.35 67.84-33.35L67.84-33.35Q68.2-10.55 68.2-2.5L68.2-2.5Q68.2-1.45 67.47-0.73 66.75 0 65.7 0L65.7 0ZM57.95-5.05L57.95-5.05Q58.9-5.25 59.95-5.75 61-6.25 61.42-6.58 61.84-6.9 62.07-7.15 62.3-7.4 62.59-7.73 62.9-8.05 63.15-8.75L63.15-8.75Q63.15-15.1 63.05-18.85L63.05-18.85Q63-18.85 62.95-18.9L62.95-18.9Q60.84-20.7 60.84-20.75L60.84-20.75Q60.3-21.1 58.55-21.4L58.55-21.4Q54.55-22.1 52.3-19.5L52.3-19.5Q50.05-17.05 50.05-13.55L50.05-13.55Q50-9.4 52.15-6.88 54.3-4.35 57.95-5.05L57.95-5.05ZM80.04 0L80.04 0Q76.34-0.65 74.69-3L74.69-3Q73.89-4.05 73.54-5.8L73.54-5.8 73.34-6.9Q73.24-7.4 73.14-7.7L73.14-7.7Q72.84-8.65 73.34-9.55 73.84-10.45 74.84-10.7 75.84-10.95 76.74-10.5 77.64-10.05 77.94-9.05L77.94-9.05Q78.09-8.5 78.24-7.8L78.24-7.8Q78.29-7.55 78.32-7.33 78.34-7.1 78.49-6.55L78.49-6.55Q78.64-5.9 79.19-5.45L79.19-5.45Q79.79-4.9 80.99-4.75L80.99-4.75Q82.99-4.35 85.29-4.85L85.29-4.85Q87.54-5.35 88.79-6.3L88.79-6.3Q89.69-7.1 89.54-7.95L89.54-7.95Q89.39-9.35 87.79-10.05L87.79-10.05Q86.79-10.5 82.59-11.25L82.59-11.25Q78.24-12.1 76.44-13.45L76.44-13.45Q73.14-15.9 74.29-20.75L74.29-20.75Q74.99-23.55 77.17-24.88 79.34-26.2 81.99-26.35L81.99-26.35Q84.24-26.45 86.57-25.83 88.89-25.2 90.54-24.1L90.54-24.1Q91.09-23.7 91.69-23.15 92.29-22.6 92.87-21.95 93.44-21.3 93.54-21.25L93.54-21.25Q94.29-20.5 94.29-19.53 94.29-18.55 93.57-17.82 92.84-17.1 91.82-17.1 90.79-17.1 90.04-17.8L90.04-17.8Q89.54-18.25 89.04-18.75L89.04-18.75 88.34-19.6Q88.04-19.85 87.64-20.1L87.64-20.1Q86.69-20.7 85.19-21.13 83.69-21.55 82.24-21.5L82.24-21.5Q79.59-21.35 79.19-19.65L79.19-19.65Q78.74-17.85 79.49-17.3L79.49-17.3Q80.39-16.65 83.54-16L83.54-16Q88.19-15.2 89.89-14.45L89.89-14.45Q93.99-12.6 94.54-8.5L94.54-8.5Q94.99-5.15 92.04-2.7L92.04-2.7Q89.79-0.85 86.34-0.15L86.34-0.15Q83.04 0.6 80.04 0L80.04 0ZM107.74-0.15L107.74-0.15Q107.44-0.25 106.52-0.45 105.59-0.65 104.92-0.9 104.24-1.15 103.37-1.63 102.49-2.1 101.79-2.93 101.09-3.75 100.59-4.9L100.59-4.9Q100.04-6.25 99.89-10.2L99.89-10.2Q99.74-13.25 99.84-18.05L99.84-18.05Q99.84-18.95 99.89-21.05L99.89-21.05 99.49-21Q98.44-20.9 97.64-21.55 96.84-22.2 96.72-23.23 96.59-24.25 97.24-25.05 97.89-25.85 98.89-26L98.89-26 100.04-26.1Q100.09-28.75 100.19-31.45L100.19-31.45Q100.24-32.5 100.99-33.2 101.74-33.9 102.79-33.85 103.84-33.8 104.54-33.05 105.24-32.3 105.19-31.25L105.19-31.25 105.04-26.5 106.69-26.6Q107.74-26.65 108.52-26 109.29-25.35 109.37-24.3 109.44-23.25 108.79-22.48 108.14-21.7 107.09-21.6L107.09-21.6 104.89-21.5Q104.84-19.1 104.84-18L104.84-18Q104.74-13.3 104.89-10.35L104.89-10.35Q104.99-7.35 105.19-6.9 105.39-6.45 105.49-6.28 105.59-6.1 105.87-5.93 106.14-5.75 106.44-5.7 106.74-5.65 107.57-5.43 108.39-5.2 109.34-4.85L109.34-4.85Q110.29-4.55 110.77-3.63 111.24-2.7 110.92-1.73 110.59-0.75 109.67-0.28 108.74 0.2 107.74-0.15L107.74-0.15Z" opacity="1" transform="matrix(1,0,0,1,0,0)" fill="#ff908b" class="wordmark-text-0" data-fill-palette-color="primary" id="text-0"></path></svg></g></svg></g></svg></g></svg></g><g></g></svg></g><defs></defs></svg><rect width="395.52" height="132.31649645192206" fill="none" stroke="none" visibility="hidden"></rect></g></svg></g></svg>