<svg version="1.1" viewBox="0 0 400 60" class="" xmlns="http://www.w3.org/2000/svg">
    <g viewBox="0 0 400 400">
        <g>
            <g>
                <g transform="matrix(1, 0, 0, 1, -119.29952, -170.140224)">
                    <svg viewBox="0 0 640 400" data-background-color="#ffffff" preserveAspectRatio="xMidYMid meet" height="400" width="640" xmlns="http://www.w3.org/2000/svg">
                        <g id="tight-bounds" transform="matrix(1,0,0,1,122.24000000000001,173.18014372581536)">
                            <svg viewBox="0 0 395.52 53.63971254836927" height="53.63971254836927" width="395.52">
                                <g>
                                    <svg viewBox="0 0 395.52 53.63971254836927" height="53.63971254836927" width="395.52" transform="matrix(1, 0, 0, 1, 17.618, 165.61)" style="transform-box: fill-box; transform-origin: 53.182% 187.95%;">
                                        <g>
                                            <svg viewBox="0 0 395.52 53.63971254836927" height="53.63971254836927" width="395.52">
                                                <g id="textblocktransform">
                                                    <svg viewBox="0 0 395.52 53.63971254836927" height="53.63971254836927" width="395.52" id="textblock">
                                                        <g>
                                                            <svg viewBox="0 0 395.52 53.63971254836927" height="53.63971254836927" width="395.52">
                                                                <g transform="matrix(1,0,0,1,0,0)">
                                                                    <svg width="395.52" viewBox="3 -36.29999923706055 271.3299865722656 36.79999923706055" height="53.63971254836927" data-palette-color="#ea832b">
                                                                        <path d="M8.55 0.2Q5.7 0.2 4.35-1.38 3-2.95 3-5.4L3-5.4 3-35.25 8.7-36.3 8.7-5.95Q8.7-4.8 9.15-4.35 9.6-3.9 10.45-3.9L10.45-3.9Q10.95-3.9 11.43-3.95 11.9-4 12.3-4.1L12.3-4.1Q12.75-4.2 13.1-4.3L13.1-4.3 13.8-0.7Q13.15-0.45 12.35-0.25L12.35-0.25Q11.65-0.05 10.7 0.08 9.75 0.2 8.55 0.2L8.55 0.2ZM32.6-12.7L32.6-24.9 38.3-24.9 38.3-12.05Q38.3-9.05 38.67-7.03 39.05-5 39.5-3.75L39.5-3.75Q40.05-2.25 40.7-1.4L40.7-1.4 36.25 0.4Q35.65-0.15 35.15-1L35.15-1Q34.75-1.7 34.32-2.73 33.9-3.75 33.75-5.15L33.75-5.15Q32.4-2.2 29.95-0.95 27.5 0.3 24.85 0.3L24.85 0.3Q20.9 0.3 19.22-2 17.55-4.3 17.55-8.3L17.55-8.3 17.55-24.9 23.25-24.9 23.25-8.4Q23.25-6.3 24-5.1 24.75-3.9 26.55-3.9L26.55-3.9Q27.65-3.9 28.72-4.53 29.8-5.15 30.67-6.3 31.55-7.45 32.07-9.08 32.6-10.7 32.6-12.7L32.6-12.7ZM79.45 0L73.8 0 73.8-16.3Q73.8-18.4 73.15-19.63 72.5-20.85 70.9-20.85L70.9-20.85Q69.95-20.85 68.97-20.33 68-19.8 67.2-18.8 66.4-17.8 65.9-16.4 65.4-15 65.4-13.3L65.4-13.3 65.4 0 59.75 0 59.75-16.3Q59.75-18.4 59.1-19.63 58.45-20.85 56.85-20.85L56.85-20.85Q55.85-20.85 54.87-20.28 53.9-19.7 53.12-18.6 52.35-17.5 51.87-15.93 51.4-14.35 51.4-12.4L51.4-12.4 51.4 0 45.7 0 45.7-12.6Q45.7-15.6 45.3-17.63 44.9-19.65 44.45-20.9L44.45-20.9Q43.9-22.35 43.25-23.25L43.25-23.25 47.75-25.05Q48.25-24.5 48.75-23.7L48.75-23.7Q49.15-23 49.55-21.98 49.95-20.95 50.2-19.65L50.2-19.65Q51.45-22.65 53.72-23.98 56-25.3 58.55-25.3L58.55-25.3Q61.1-25.3 62.52-24 63.95-22.7 64.65-20.65L64.65-20.65Q66-23.15 68.12-24.23 70.25-25.3 72.59-25.3L72.59-25.3Q74.55-25.3 75.87-24.68 77.2-24.05 77.97-22.93 78.75-21.8 79.09-20.23 79.45-18.65 79.45-16.7L79.45-16.7 79.45 0ZM85.69-1.15L85.69-35.25 91.39-36.25 91.39-21Q92.29-23.05 93.92-24.18 95.54-25.3 98.09-25.3L98.09-25.3Q100.44-25.3 102.17-24.43 103.89-23.55 105.04-21.93 106.19-20.3 106.74-18 107.29-15.7 107.29-12.9L107.29-12.9Q107.29-10.05 106.42-7.63 105.54-5.2 103.97-3.45 102.39-1.7 100.19-0.7 97.99 0.3 95.34 0.3L95.34 0.3Q93.84 0.3 92.14 0.08 90.44-0.15 88.99-0.4L88.99-0.4Q87.34-0.7 85.69-1.15L85.69-1.15ZM97.14-21.3Q95.89-21.3 94.84-20.45 93.79-19.6 93.02-18.2 92.24-16.8 91.82-15.05 91.39-13.3 91.39-11.45L91.39-11.45 91.39-4.2Q91.84-4.1 92.84-3.9 93.84-3.7 94.69-3.7L94.69-3.7Q96.54-3.7 97.79-4.35 99.04-5 99.79-6.15 100.54-7.3 100.84-8.9 101.14-10.5 101.14-12.4L101.14-12.4Q101.14-14.15 101.04-15.75 100.94-17.35 100.52-18.6 100.09-19.85 99.29-20.58 98.49-21.3 97.14-21.3L97.14-21.3ZM110.79-11.85Q110.79-15.2 111.72-17.75 112.64-20.3 114.27-22.03 115.89-23.75 118.09-24.63 120.29-25.5 122.84-25.5L122.84-25.5Q125.09-25.5 126.67-24.95 128.24-24.4 129.24-23.45 130.24-22.5 130.72-21.2 131.19-19.9 131.19-18.4L131.19-18.4Q131.19-16.6 130.19-14.98 129.19-13.35 127.32-12.13 125.44-10.9 122.79-10.18 120.14-9.45 116.84-9.4L116.84-9.4Q116.99-8.25 117.32-7.23 117.64-6.2 118.27-5.43 118.89-4.65 119.89-4.2 120.89-3.75 122.39-3.75L122.39-3.75Q123.49-3.75 124.74-4 125.99-4.25 127.04-4.6L127.04-4.6Q128.29-5 129.49-5.5L129.49-5.5 130.99-1.95Q129.69-1.3 128.19-0.8L128.19-0.8Q126.89-0.35 125.19 0 123.49 0.35 121.59 0.35L121.59 0.35Q118.69 0.35 116.64-0.53 114.59-1.4 113.29-3 111.99-4.6 111.39-6.85 110.79-9.1 110.79-11.85L110.79-11.85ZM122.39-21.6Q120.74-21.6 119.67-20.83 118.59-20.05 117.94-18.82 117.29-17.6 117.02-16.07 116.74-14.55 116.69-13L116.69-13Q119.09-13.1 120.77-13.63 122.44-14.15 123.49-14.93 124.54-15.7 125.02-16.6 125.49-17.5 125.49-18.4L125.49-18.4Q125.49-19.85 124.64-20.73 123.79-21.6 122.39-21.6L122.39-21.6ZM147.09-19.7Q146.19-19.7 145.29-19.25 144.39-18.8 143.69-18.03 142.99-17.25 142.54-16.15 142.09-15.05 142.09-13.7L142.09-13.7 142.09 0 136.39 0 136.39-12.6Q136.39-15.6 135.99-17.63 135.59-19.65 135.14-20.9L135.14-20.9Q134.59-22.35 133.94-23.25L133.94-23.25 138.44-25.05Q138.89-24.5 139.39-23.7L139.39-23.7Q139.79-23 140.19-22.05 140.59-21.1 140.84-19.8L140.84-19.8Q141.84-22.7 143.74-23.98 145.64-25.25 148.04-25.25L148.04-25.25Q149.19-25.25 150.19-24.98 151.19-24.7 151.14-24.7L151.14-24.7 149.54-19.15Q149.59-19.15 148.96-19.43 148.34-19.7 147.09-19.7L147.09-19.7ZM154.39-35.25L160.09-36.25 160.09-22Q160.49-22.5 161.11-23.08 161.74-23.65 162.69-24.15 163.64-24.65 164.89-25 166.14-25.35 167.79-25.35L167.79-25.35Q169.34-25.35 170.69-24.9 172.04-24.45 173.01-23.6 173.99-22.75 174.56-21.53 175.14-20.3 175.14-18.75L175.14-18.75Q175.14-16.5 174.21-15.05 173.29-13.6 172.14-12.75L172.14-12.75Q170.84-11.75 169.14-11.15L169.14-11.15 176.14 0 169.69 0 162.49-12.45 162.44-12.95Q162.84-13.05 163.96-13.4 165.09-13.75 166.29-14.4 167.49-15.05 168.41-16.03 169.34-17 169.34-18.35L169.34-18.35Q169.34-19.8 168.49-20.55 167.64-21.3 166.24-21.3L166.24-21.3Q164.34-21.3 163.14-20.55 161.94-19.8 161.26-18.85 160.59-17.9 160.34-17.05 160.09-16.2 160.09-16.05L160.09-16.05 160.09 0 154.39 0 154.39-35.25ZM189.03-25.5Q194.78-25.5 197.38-22.1 199.98-18.7 199.98-12.75L199.98-12.75Q199.98-9.95 199.28-7.53 198.58-5.1 197.16-3.33 195.73-1.55 193.58-0.53 191.43 0.5 188.58 0.5L188.58 0.5Q185.73 0.5 183.66-0.38 181.58-1.25 180.23-2.9 178.88-4.55 178.26-6.9 177.63-9.25 177.63-12.2L177.63-12.2Q177.63-15.05 178.33-17.48 179.03-19.9 180.46-21.68 181.88-23.45 184.03-24.48 186.18-25.5 189.03-25.5L189.03-25.5ZM188.53-21.3Q187.08-21.3 186.16-20.65 185.23-20 184.71-18.82 184.18-17.65 183.98-16.07 183.78-14.5 183.78-12.7L183.78-12.7Q183.78-10.85 184.01-9.2 184.23-7.55 184.83-6.33 185.43-5.1 186.46-4.4 187.48-3.7 189.08-3.7L189.08-3.7Q190.53-3.7 191.46-4.35 192.38-5 192.91-6.18 193.43-7.35 193.63-8.9 193.83-10.45 193.83-12.25L193.83-12.25Q193.83-14.1 193.61-15.75 193.38-17.4 192.78-18.65 192.18-19.9 191.16-20.6 190.13-21.3 188.53-21.3L188.53-21.3ZM227.48-1.4L223.03 0.4Q222.93 0.35 222.58-0.08 222.23-0.5 221.81-1.25 221.38-2 220.98-3.13 220.58-4.25 220.48-5.75L220.48-5.75Q219.63-2.75 217.76-1.23 215.88 0.3 212.68 0.3L212.68 0.3Q210.33 0.3 208.61-0.58 206.88-1.45 205.73-3.08 204.58-4.7 204.03-7 203.48-9.3 203.48-12.1L203.48-12.1Q203.48-14.95 204.36-17.38 205.23-19.8 206.81-21.55 208.38-23.3 210.58-24.3 212.78-25.3 215.43-25.3L215.43-25.3Q216.33-25.3 217.36-25.2 218.38-25.1 219.38-24.95L219.38-24.95 219.38-36.25 225.08-35.25 225.08-12.05Q225.08-9.05 225.43-7.08 225.78-5.1 226.23-3.88 226.68-2.65 227.06-2.1 227.43-1.55 227.48-1.4L227.48-1.4ZM213.63-3.75Q214.88-3.75 215.93-4.6 216.98-5.45 217.76-6.83 218.53-8.2 218.96-9.95 219.38-11.7 219.38-13.55L219.38-13.55 219.38-20.75Q218.88-20.9 217.88-21.1 216.88-21.3 216.08-21.3L216.08-21.3Q214.18-21.3 212.96-20.65 211.73-20 210.98-18.85 210.23-17.7 209.93-16.1 209.63-14.5 209.63-12.6L209.63-12.6Q209.63-10.85 209.73-9.25 209.83-7.65 210.26-6.43 210.68-5.2 211.48-4.48 212.28-3.75 213.63-3.75L213.63-3.75ZM230.28-11.85Q230.28-15.2 231.2-17.75 232.13-20.3 233.75-22.03 235.38-23.75 237.58-24.63 239.78-25.5 242.33-25.5L242.33-25.5Q244.58-25.5 246.15-24.95 247.73-24.4 248.73-23.45 249.73-22.5 250.2-21.2 250.68-19.9 250.68-18.4L250.68-18.4Q250.68-16.6 249.68-14.98 248.68-13.35 246.8-12.13 244.93-10.9 242.28-10.18 239.63-9.45 236.33-9.4L236.33-9.4Q236.48-8.25 236.8-7.23 237.13-6.2 237.75-5.43 238.38-4.65 239.38-4.2 240.38-3.75 241.88-3.75L241.88-3.75Q242.98-3.75 244.23-4 245.48-4.25 246.53-4.6L246.53-4.6Q247.78-5 248.98-5.5L248.98-5.5 250.48-1.95Q249.18-1.3 247.68-0.8L247.68-0.8Q246.38-0.35 244.68 0 242.98 0.35 241.08 0.35L241.08 0.35Q238.18 0.35 236.13-0.53 234.08-1.4 232.78-3 231.48-4.6 230.88-6.85 230.28-9.1 230.28-11.85L230.28-11.85ZM241.88-21.6Q240.23-21.6 239.15-20.83 238.08-20.05 237.43-18.82 236.78-17.6 236.5-16.07 236.23-14.55 236.18-13L236.18-13Q238.58-13.1 240.25-13.63 241.93-14.15 242.98-14.93 244.03-15.7 244.5-16.6 244.98-17.5 244.98-18.4L244.98-18.4Q244.98-19.85 244.13-20.73 243.28-21.6 241.88-21.6L241.88-21.6ZM253.93-11.85Q253.93-15.2 254.85-17.75 255.78-20.3 257.4-22.03 259.03-23.75 261.23-24.63 263.43-25.5 265.98-25.5L265.98-25.5Q268.23-25.5 269.8-24.95 271.38-24.4 272.38-23.45 273.38-22.5 273.85-21.2 274.33-19.9 274.33-18.4L274.33-18.4Q274.33-16.6 273.33-14.98 272.33-13.35 270.45-12.13 268.58-10.9 265.93-10.18 263.28-9.45 259.98-9.4L259.98-9.4Q260.13-8.25 260.45-7.23 260.78-6.2 261.4-5.43 262.03-4.65 263.03-4.2 264.03-3.75 265.53-3.75L265.53-3.75Q266.63-3.75 267.88-4 269.13-4.25 270.18-4.6L270.18-4.6Q271.43-5 272.63-5.5L272.63-5.5 274.13-1.95Q272.83-1.3 271.33-0.8L271.33-0.8Q270.03-0.35 268.33 0 266.63 0.35 264.73 0.35L264.73 0.35Q261.83 0.35 259.78-0.53 257.73-1.4 256.43-3 255.13-4.6 254.53-6.85 253.93-9.1 253.93-11.85L253.93-11.85ZM265.53-21.6Q263.88-21.6 262.8-20.83 261.73-20.05 261.08-18.82 260.43-17.6 260.15-16.07 259.88-14.55 259.83-13L259.83-13Q262.23-13.1 263.9-13.63 265.58-14.15 266.63-14.93 267.68-15.7 268.15-16.6 268.63-17.5 268.63-18.4L268.63-18.4Q268.63-19.85 267.78-20.73 266.93-21.6 265.53-21.6L265.53-21.6Z" opacity="1" fill="#ea832b" class="wordmark-text-0" data-fill-palette-color="primary" id="text-0" transform="matrix(1,0,0,1,0,0)"></path>
                                                                    </svg>
                                                                </g>
                                                            </svg>
                                                        </g>
                                                    </svg>
                                                </g>
                                            </svg>
                                        </g>
                                        <g></g>
                                    </svg>
                                </g>
                            </svg>
                        </g>
                    </svg>
                </g>
            </g>
        </g>
    </g>
</svg>